<?xml version="1.0" standalone="no"?>
<!DOCTYPE svg PUBLIC "-//W3C//DTD SVG 20010904//EN"
 "http://www.w3.org/TR/2001/REC-SVG-20010904/DTD/svg10.dtd">
<svg version="1.0" xmlns="http://www.w3.org/2000/svg"
 width="2000.000000pt" height="2000.000000pt" viewBox="0 0 2000.000000 2000.000000"
 preserveAspectRatio="xMidYMid meet">
<metadata>
Created by potrace 1.14, written by Peter Selinger 2001-2017
</metadata>
<g transform="translate(0.000000,2000.000000) scale(0.100000,-0.100000)"
fill="#000000" stroke="none">
<path d="M8528 15915 c-1 -1 -37 -6 -78 -9 -425 -39 -853 -219 -1220 -512
-212 -170 -483 -470 -663 -734 -80 -118 -72 -176 -72 520 0 407 -3 620 -10
621 -13 1 -1464 1 -1490 0 -20 -1 -20 -7 -20 -3676 l0 -3675 760 0 760 0 1
1533 c0 842 4 1591 8 1662 9 166 20 316 31 410 29 245 36 298 49 362 3 11 8
43 12 70 3 26 8 57 11 68 2 11 6 31 9 45 2 14 7 36 10 50 11 48 15 65 20 90 3
14 12 52 21 85 8 33 17 67 18 75 27 115 110 365 171 512 203 488 485 842 814
1020 77 42 171 84 210 94 8 2 44 10 80 19 86 21 139 27 235 28 80 1 208 -8
255 -17 341 -69 575 -246 714 -541 33 -70 80 -204 90 -260 11 -54 24 -149 31
-207 3 -32 6 -1192 6 -2578 l1 -2520 759 0 759 0 1 1533 c0 842 2 1579 3 1637
4 121 15 309 21 360 2 19 7 67 10 105 4 39 8 81 10 95 2 14 6 43 9 65 3 22 8
58 11 80 3 22 7 50 9 61 2 12 7 39 11 60 10 68 16 98 26 144 6 25 13 59 16 75
8 54 63 268 95 370 18 55 32 103 32 107 1 3 4 10 9 14 4 4 7 13 7 21 0 24 112
295 168 408 206 412 477 712 780 865 73 37 252 104 252 95 0 -3 12 0 27 6 30
11 145 23 228 23 175 0 356 -36 490 -99 328 -153 517 -447 572 -890 5 -33 8
-1202 8 -2597 l0 -2538 762 0 762 0 -3 2758 c-2 1516 -6 2775 -9 2797 -3 22
-9 65 -12 95 -3 30 -8 62 -10 70 -2 8 -6 33 -10 55 -20 143 -84 375 -136 492
-11 24 -19 46 -19 49 0 3 -23 52 -51 108 -200 398 -513 696 -911 865 -88 37
-254 95 -303 106 -11 2 -31 6 -45 9 -14 3 -41 9 -60 13 -19 4 -37 8 -40 8 -3
1 -27 5 -55 9 -27 4 -61 10 -75 12 -105 19 -469 26 -612 11 -374 -37 -746
-171 -1063 -382 -119 -79 -126 -85 -254 -191 -245 -203 -512 -537 -682 -851
-19 -35 -36 -63 -39 -63 -3 0 -14 28 -23 63 -158 557 -552 1009 -1087 1245
-41 19 -84 38 -95 42 -21 9 -169 59 -195 65 -66 17 -145 35 -172 40 -18 3 -58
10 -88 15 -30 5 -73 12 -95 15 -43 7 -451 16 -457 10z"/>
<path d="M5007 8032 c-13 -3 -17 -15 -18 -55 -2 -255 0 -1429 3 -1433 2 -2
777 -5 1720 -6 944 -1 1715 -5 1713 -9 -3 -3 -93 -77 -202 -165 -109 -87 -200
-161 -203 -164 -3 -3 -27 -24 -55 -45 -27 -22 -52 -42 -55 -45 -3 -3 -50 -41
-105 -85 -55 -44 -109 -87 -120 -97 -11 -9 -180 -145 -375 -303 -195 -157
-364 -294 -375 -303 -11 -9 -40 -33 -65 -52 -25 -19 -54 -43 -65 -52 -18 -15
-258 -210 -355 -288 -19 -15 -109 -88 -200 -161 -91 -73 -179 -144 -195 -158
-17 -14 -48 -39 -69 -56 -22 -16 -78 -62 -125 -100 -47 -39 -261 -212 -476
-385 -214 -172 -392 -315 -395 -317 -6 -5 -8 -1874 -2 -1886 3 -8 36 14 83 55
15 13 68 57 119 98 51 41 176 144 279 229 272 224 234 193 676 556 22 18 69
57 105 86 36 29 67 55 70 58 3 4 41 35 85 71 44 35 82 67 85 70 3 3 24 21 48
39 24 19 101 82 171 140 70 58 147 122 171 141 37 30 115 94 335 275 22 18 81
66 130 107 50 41 146 120 215 177 69 57 143 118 165 136 84 69 861 707 880
723 11 9 45 37 75 62 30 25 57 47 60 50 3 3 30 25 60 49 30 25 62 50 70 57 17
14 14 17 166 -123 49 -45 99 -90 110 -100 12 -10 68 -61 124 -113 56 -52 111
-102 120 -110 31 -27 181 -163 219 -199 20 -18 69 -63 109 -99 40 -36 83 -74
95 -86 13 -12 63 -57 111 -101 48 -44 100 -91 115 -105 29 -28 200 -183 236
-215 12 -11 64 -59 116 -106 227 -207 337 -307 379 -344 24 -22 71 -65 105
-96 95 -88 193 -178 284 -259 46 -41 98 -88 116 -105 17 -16 76 -70 131 -120
54 -49 108 -99 120 -110 11 -11 59 -54 105 -95 46 -41 96 -86 110 -100 14 -14
61 -56 104 -95 43 -38 90 -81 105 -95 15 -14 69 -63 121 -110 51 -47 102 -93
112 -103 10 -10 21 -16 24 -13 10 10 6 1888 -4 1895 -6 3 -54 46 -107 95 -53
49 -106 98 -119 108 -24 21 -183 166 -229 209 -16 15 -56 51 -89 80 -34 30
-76 68 -94 84 -17 17 -72 66 -120 110 -49 44 -114 103 -145 131 -30 28 -131
120 -225 204 -285 258 -359 324 -375 340 -9 8 -53 49 -99 90 -46 41 -98 89
-115 105 -18 17 -68 62 -111 100 -44 39 -89 79 -100 90 -11 11 -63 58 -115
105 -52 47 -100 90 -106 95 -6 6 -53 48 -105 95 -93 85 -209 190 -219 200 -3
3 -48 43 -100 90 -52 47 -117 106 -145 131 -27 25 -72 66 -99 91 l-48 45 2898
-1 2899 -1 3 746 3 746 -3743 2 c-2059 2 -4335 3 -5059 4 -723 1 -1323 1
-1332 -1z"/>
</g>
</svg>
